<?xml version="1.0" encoding="UTF-8" standalone="no"?>
<svg
   height="360"
   style="clip-rule:evenodd;fill-rule:evenodd;stroke-linejoin:round;stroke-miterlimit:1.41421"
   version="1.1"
   viewBox="0 0 360 360"
   width="360"
   xml:space="preserve"
   id="svg8"
   sodipodi:docname="wmectrl.svg"
   inkscape:version="1.4 (e7c3feb100, 2024-10-09)"
   inkscape:export-filename="../512x512/wmectrl.png"
   inkscape:export-xdpi="136.53334"
   inkscape:export-ydpi="136.53334"
   xmlns:inkscape="http://www.inkscape.org/namespaces/inkscape"
   xmlns:sodipodi="http://sodipodi.sourceforge.net/DTD/sodipodi-0.dtd"
   xmlns="http://www.w3.org/2000/svg"
   xmlns:svg="http://www.w3.org/2000/svg"><sodipodi:namedview
     id="namedview8"
     pagecolor="#ffffff"
     bordercolor="#666666"
     borderopacity="1.0"
     inkscape:showpageshadow="2"
     inkscape:pageopacity="0.0"
     inkscape:pagecheckerboard="true"
     inkscape:deskcolor="#d1d1d1"
     inkscape:lockguides="false"
     inkscape:zoom="0.81510868"
     inkscape:cx="-138.63182"
     inkscape:cy="152.12695"
     inkscape:window-width="1920"
     inkscape:window-height="1011"
     inkscape:window-x="0"
     inkscape:window-y="32"
     inkscape:window-maximized="1"
     inkscape:current-layer="Group-1-copy" /><rect
     height="346.57599"
     id="_19.-Site-cloning"
     style="fill:none"
     width="395.345"
     x="-9.0130005"
     y="20.322002" /><g
     id="Group-1-copy"
     transform="translate(-10,20)"><path
       d="m 360.149,99.582 c 0,-8.279 -6.722,-15 -15,-15 H 97.205 c -8.279,0 -15,6.721 -15,15 v 191.22 c 0,8.279 6.721,15 15,15 h 247.944 c 8.278,0 15,-6.721 15,-15 z"
       id="Rounded-Rectangle-1-copy-2"
       style="fill:url(#_Linear1)" /><path
       d="m 95.38,127.039 h 248.555 v 156.355 c 0,4.774 -3.87,8.644 -8.644,8.644 H 107.265 c -6.564,0 -11.885,-5.321 -11.885,-11.885 z"
       id="Rounded-Rectangle-2-copy"
       style="fill:#ffffff" /><clipPath
       id="_clip2"><path
         d="m 95.38,127.039 h 248.555 v 156.355 c 0,4.774 -3.87,8.644 -8.644,8.644 H 107.265 c -6.564,0 -11.885,-5.321 -11.885,-11.885 z"
         id="Rounded-Rectangle-2-copy1" /></clipPath><g
       clip-path="url(#_clip2)"
       id="g1"><rect
         height="41.428001"
         id="Rectangle-1-copy"
         style="fill:#e5f1ff"
         width="199.74699"
         x="115.935"
         y="139.009" /><rect
         height="34.473"
         id="Rectangle-2-copy-5"
         style="fill:#e5f1ff"
         width="63.847"
         x="117.522"
         y="189.013" /><rect
         height="42.001999"
         id="Rectangle-2-copy-4"
         style="fill:#e5f1ff"
         width="134.68401"
         x="117.522"
         y="237.464" /><rect
         height="42.001999"
         id="Rectangle-2-copy-3"
         style="fill:#e5f1ff"
         width="54.866001"
         x="260.30899"
         y="237.464" /><rect
         height="12.358"
         id="Rectangle-3-copy"
         style="fill:#e5f1ff"
         width="55.373001"
         x="190.58701"
         y="189.24899" /><rect
         height="13.235"
         id="Rectangle-4-copy"
         style="fill:#e5f1ff"
         width="125.703"
         x="190.114"
         y="210.41901" /></g><circle
       cx="128.20799"
       cy="104.924"
       id="Ellipse-1-copy-5"
       r="7.0739999"
       style="fill:#0084ff" /><circle
       cx="107.849"
       cy="104.924"
       id="Ellipse-1-copy-4"
       r="7.0739999"
       style="fill:#55d7ff" /><circle
       cx="148.534"
       cy="104.924"
       id="Ellipse-1-copy-3"
       r="7.0739999"
       style="fill:#0bbc00" /><path
       d="m 300.691,104.452 c 0,-3.587 -2.913,-6.5 -6.5,-6.5 h -68.033 c -3.588,0 -6.5,2.913 -6.5,6.5 v 1.046 c 0,3.587 2.912,6.5 6.5,6.5 h 68.033 c 3.587,0 6.5,-2.913 6.5,-6.5 z"
       id="Rounded-Rectangle-3-copy"
       style="fill:#e5f1ff" /><path
       d="m 345.698,104.398 c 0,-3.614 -2.934,-6.547 -6.547,-6.547 h -9.022 c -3.613,0 -6.547,2.933 -6.547,6.547 v 1.053 c 0,3.613 2.934,6.547 6.547,6.547 h 9.022 c 3.613,0 6.547,-2.934 6.547,-6.547 z"
       id="Rounded-Rectangle-3-copy-3"
       style="fill:#e5f1ff" /></g><g
     id="Group-1"
     transform="translate(-10,20)"><path
       d="m 330.977,63.927 c 0,-8.279 -6.722,-15 -15,-15 H 68.033 c -8.279,0 -15,6.721 -15,15 v 191.22 c 0,8.279 6.721,15 15,15 h 247.944 c 8.278,0 15,-6.721 15,-15 z"
       id="Rounded-Rectangle-1-copy-21"
       style="fill:url(#_Linear3);opacity:1"
       sodipodi:nodetypes="sssssssss" /><path
       d="M 66.209,91.384 H 314.763 V 247.74 c 0,4.773 -3.87,8.643 -8.644,8.643 H 78.093 c -6.563,0 -11.884,-5.321 -11.884,-11.885 z"
       id="Rounded-Rectangle-2-copy2"
       style="fill:#ffffff"
       sodipodi:nodetypes="ccssssc" /><clipPath
       id="_clip4"><path
         d="M 66.209,91.384 H 314.763 V 247.74 c 0,4.773 -3.87,8.643 -8.644,8.643 H 78.093 c -6.563,0 -11.884,-5.321 -11.884,-11.885 z"
         id="Rounded-Rectangle-2-copy3" /></clipPath><g
       clip-path="url(#_clip4)"
       id="g2"><rect
         height="41.428001"
         id="Rectangle-1-copy1"
         style="fill:#e5f1ff"
         width="199.74699"
         x="86.763"
         y="103.354" /><rect
         height="34.473"
         id="Rectangle-2-copy-51"
         style="fill:#e5f1ff"
         width="63.847"
         x="88.349998"
         y="153.358" /><rect
         height="42.001999"
         id="Rectangle-2-copy-41"
         style="fill:#e5f1ff"
         width="134.68401"
         x="88.349998"
         y="201.80901" /><rect
         height="42.001999"
         id="Rectangle-2-copy-31"
         style="fill:#e5f1ff"
         width="54.866001"
         x="231.13699"
         y="201.80901" /><rect
         height="12.358"
         id="Rectangle-3-copy1"
         style="fill:#e5f1ff"
         width="55.373001"
         x="161.41499"
         y="153.595" /><rect
         height="13.235"
         id="Rectangle-4-copy1"
         style="fill:#e5f1ff"
         width="125.703"
         x="160.942"
         y="174.765" /></g><circle
       cx="99.036003"
       cy="69.269997"
       id="Ellipse-1-copy-51"
       r="7.0739999"
       style="fill:#0084ff" /><circle
       cx="78.677002"
       cy="69.269997"
       id="Ellipse-1-copy-41"
       r="7.0739999"
       style="fill:#55d7ff" /><circle
       cx="119.362"
       cy="69.269997"
       id="Ellipse-1-copy-31"
       r="7.0739999"
       style="fill:#0bbc00" /><path
       d="m 271.519,68.797 c 0,-3.587 -2.913,-6.5 -6.5,-6.5 h -68.033 c -3.588,0 -6.5,2.913 -6.5,6.5 v 1.046 c 0,3.588 2.912,6.5 6.5,6.5 h 68.033 c 3.587,0 6.5,-2.912 6.5,-6.5 z"
       id="Rounded-Rectangle-3-copy1"
       style="fill:#e5f1ff" /><path
       d="m 316.526,68.743 c 0,-3.613 -2.934,-6.547 -6.547,-6.547 h -9.022 c -3.613,0 -6.546,2.934 -6.546,6.547 v 1.053 c 0,3.614 2.933,6.547 6.546,6.547 h 9.022 c 3.613,0 6.547,-2.933 6.547,-6.547 z"
       id="Rounded-Rectangle-3-copy-31"
       style="fill:#e5f1ff" /></g><path
     d="m 284.242,53.675 c 0,-8.279 -6.722,-15 -15,-15 H 21.298 c -8.279,0 -15,6.721 -15,15 v 191.22 c 0,8.279 6.721,15 15,15 h 247.944 c 8.278,0 15,-6.721 15,-15 z"
     id="Rounded-Rectangle-1"
     style="fill:url(#_Linear5)"
     sodipodi:nodetypes="sssssssss" /><path
     d="m 19.474,81.132 h 248.554 v 156.355 c 0,4.774 -3.87,8.644 -8.644,8.644 H 31.358 c -6.563,0 -11.884,-5.321 -11.884,-11.885 z"
     id="Rounded-Rectangle-2"
     style="fill:#ffffff" /><clipPath
     id="_clip6"><path
       d="m 29.474,61.132 h 248.554 v 156.355 c 0,4.774 -3.87,8.644 -8.644,8.644 H 41.358 c -6.563,0 -11.884,-5.321 -11.884,-11.885 z"
       id="path2" /></clipPath><g
     clip-path="url(#_clip6)"
     id="g3"
     transform="translate(-10,20)"><rect
       height="41.428001"
       id="Rectangle-1"
       style="fill:#e5f1ff"
       width="230.203"
       x="40.668999"
       y="73.101997" /><rect
       height="34.473"
       id="Rectangle-2"
       style="fill:#e5f1ff"
       width="73.583"
       x="42.498001"
       y="123.106" /><rect
       height="42.001999"
       id="Rectangle-2-copy"
       style="fill:#e5f1ff"
       width="155.22"
       x="42.498001"
       y="171.55701" /><rect
       height="42.001999"
       id="Rectangle-2-copy-2"
       style="fill:#e5f1ff"
       width="63.231998"
       x="207.05701"
       y="171.55701" /><rect
       height="12.358"
       id="Rectangle-3"
       style="fill:#e5f1ff"
       width="63.816002"
       x="126.704"
       y="123.342" /><rect
       height="13.235"
       id="Rectangle-4"
       style="fill:#e5f1ff"
       width="144.869"
       x="126.159"
       y="144.51199" /></g><path
     d="m 269.791,58.492 c 0,-3.614 -2.934,-6.548 -6.549,-6.548 h -9.018 c -3.614,0 -6.548,2.934 -6.548,6.548 v 1.05 c 0,3.614 2.934,6.549 6.548,6.549 h 9.018 c 3.615,0 6.549,-2.935 6.549,-6.549 z"
     id="Rounded-Rectangle-3-copy-2"
     style="fill:#e5f1ff"
     sodipodi:nodetypes="sssssssss" /><defs
     id="defs8"><linearGradient
       gradientTransform="matrix(0,243.301,-243.301,0,354.038,171.354)"
       gradientUnits="userSpaceOnUse"
       id="_Linear1"
       x1="0"
       x2="1"
       y1="0"
       y2="0"><stop
         offset="0"
         style="stop-color:#6d9cda;stop-opacity:1;"
         id="stop3" /><stop
         offset="1"
         style="stop-color:#c3daf6;stop-opacity:1"
         id="stop4" /></linearGradient><linearGradient
       gradientTransform="matrix(0,258.809,-258.809,0,325.022,101.826)"
       gradientUnits="userSpaceOnUse"
       id="_Linear3"
       x1="0"
       x2="1"
       y1="0"
       y2="0"><stop
         offset="0"
         style="stop-color:#6d9cda;stop-opacity:1;"
         id="stop5" /><stop
         offset="1"
         style="stop-color:#8cc3fc;stop-opacity:1"
         id="stop6" /></linearGradient><linearGradient
       gradientTransform="matrix(0,193.827,-193.827,0,241.159,163.384)"
       gradientUnits="userSpaceOnUse"
       id="_Linear5"
       x1="0"
       x2="1"
       y1="0"
       y2="0"><stop
         offset="0"
         style="stop-color:#204a87;stop-opacity:1;"
         id="stop7" /><stop
         offset="1"
         style="stop-color:#1d98ff;stop-opacity:1"
         id="stop8" /></linearGradient></defs><rect
     style="opacity:1;fill:#e5f1ff;fill-opacity:1;stroke-width:1.15362;stroke-linejoin:bevel;stroke-dasharray:none;paint-order:normal"
     id="rect8"
     width="219.04001"
     height="14.147"
     x="19.474001"
     y="51.944"
     rx="5.3045311"
     ry="6.2722235"
     inkscape:highlight-color="#00ffc2" /></svg>
